<svg xmlns="http://www.w3.org/2000/svg" viewBox="0 0 25 35.65"><defs><style>.cls-1{fill:#babdbf;}</style></defs><title>Asset 28</title><g id="Layer_2" data-name="Layer 2"><g id="Layer_1-2" data-name="Layer 1"><path class="cls-1" d="M12.5,35.65l-10-14.5C-1.24,16.21-.7,8,3.66,3.66a12.52,12.52,0,0,1,17.69,0h0c4.36,4.35,4.9,12.55,1.16,17.53Zm0-33a9.81,9.81,0,0,0-7,2.88C2.12,9,1.68,15.66,4.62,19.59L12.5,31l7.85-11.34c3-4,2.54-10.67-.88-14.09A9.84,9.84,0,0,0,12.5,2.66Z"/><path class="cls-1" d="M12.61,17.89A5.5,5.5,0,1,1,18.1,12.4a5.49,5.49,0,0,1-5.49,5.49Z"/></g></g></svg>