<svg xmlns="http://www.w3.org/2000/svg" viewBox="0 0 21.4 21.2"><defs><style>.cls-1{fill:#ff5000;}</style></defs><title>Asset 71</title><g id="Layer_2" data-name="Layer 2"><g id="Layer_1-2" data-name="Layer 1"><path class="cls-1" d="M18.93,11.84a7.63,7.63,0,0,0,0-2.49L21.31,8l.09-.05-3-5.17,0-.09L15.88,4.1a8.34,8.34,0,0,0-2.14-1.22V0H7.66V2.88A8.24,8.24,0,0,0,5.52,4.1L3,2.67l-3,5.18L0,7.93,2.47,9.36a7.77,7.77,0,0,0,0,2.49L0,13.27l3,5.18,0,.09L5.52,17.1a8.29,8.29,0,0,0,2.14,1.22V21.2h6.08V18.32a8.29,8.29,0,0,0,2.14-1.22l2.48,1.43,3-5.26ZM12.2,17.21v2.45h-3V17.21L8.67,17a6.68,6.68,0,0,1-2.53-1.45l-.42-.38L3.6,16.42l-1.5-2.59,2-1.17.06,0-.12-.55a6.43,6.43,0,0,1,0-2.94l.12-.55L2.11,7.37l1.5-2.6L5.65,6l.06,0,.42-.38A6.74,6.74,0,0,1,8.67,4.16L9.2,4V1.54h3V4l.54.17a6.74,6.74,0,0,1,2.54,1.45l.42.38L17.8,4.77l1.5,2.6-2,1.17-.06,0,.12.55a6.38,6.38,0,0,1,0,2.94l-.12.55,2.1,1.21-1.5,2.59-2-1.18-.06,0-.42.38A6.71,6.71,0,0,1,12.74,17Z"/><path class="cls-1" d="M10.7,6.81a3.79,3.79,0,1,0,3.79,3.79A3.8,3.8,0,0,0,10.7,6.81Zm0,6A2.25,2.25,0,1,1,13,10.6,2.26,2.26,0,0,1,10.7,12.85Z"/></g></g></svg>